<svg width="215" height="87" viewBox="0 0 215 87" fill="none" xmlns="http://www.w3.org/2000/svg">
<g clip-path="url(#clip0)">
<path d="M40.4 50.7C35.2 45.6 30.1 44.7 26.6 44.7C21.3 44.7 17.9 46.9 15.8 49C13.7 51.1 11.6 54.8 11.6 60.3C11.6 66 13.8 69.8 16 72C18.6 74.4 22.1 75.9 26.3 75.9C30.9 75.9 36.4 74 40.3 69.6V82.2C37.5 83.9 33 86 25.5 86C17.4 86 11.6 83.7 6.9 78.8C3.4 75.2 -0.1 69.4 -0.1 60.5C-0.1 51.3 3.7 45.2 7.3 41.6C11.1 37.8 17.3 34.4 26.9 34.4C30.6 34.4 35 35 40.2 37.9L40.4 50.7Z" fill="#242424"/>
<path d="M64.5 0H75.9V39.9C80.8 34.9 86.1 34.4 89 34.4C97.9 34.4 102 39 103.4 41C106.4 45.4 106.5 51.1 106.5 54.6V84.5H95.1V55.7C95.1 52.8 95.1 49.7 92.9 47.2C91.6 45.8 89.4 44.6 86.5 44.6C82.7 44.6 79.7 46.5 78.1 48.7C76.5 51 75.8 54.7 75.8 61V84.5H64.5V0Z" fill="#242424"/>
<path d="M206.9 12C211.2 12 214.3 15.1 214.3 19.4C214.3 23.3 210.9 26.6 207.1 26.6C202.9 26.6 199.7 23.5 199.7 19.2C199.7 15.4 203 12 206.9 12ZM214.2 39.8L212.2 80.3C212.1 82.7 210.1 84.5 207.7 84.5H206.1C203.7 84.5 201.8 82.6 201.6 80.3L199.6 39.8C199.5 38.8 199.9 37.8 200.6 37C201.7 35.9 203.8 34.4 206.8 34.4C209.8 34.4 211.9 35.9 213 37C213.9 37.8 214.3 38.8 214.2 39.8Z" fill="#7C98AB"/>
<path d="M136.8 12C141.1 12 144.2 15.1 144.2 19.4C144.2 23.3 140.8 26.6 137 26.6C132.8 26.6 129.6 23.5 129.6 19.2C129.6 15.4 132.9 12 136.8 12ZM144.1 40.4L142.1 80.3C142 82.7 140 84.5 137.6 84.5H136C133.6 84.5 131.7 82.6 131.5 80.3L129.5 40.4C129.4 38.9 130 37.4 131.1 36.5C132.3 35.5 134.2 34.5 136.7 34.5C139.2 34.5 141.1 35.5 142.3 36.5C143.6 37.4 144.1 38.9 144.1 40.4Z" fill="#7C98AB"/>
<path d="M178.2 5.8V78.7C178.2 81.9 176.2 84.5 173.8 84.5H171C168.5 84.5 166.6 81.9 166.6 78.7V5.8C166.6 2.6 168.6 0 171 0H173.8C176.2 0 178.2 2.6 178.2 5.8Z" fill="#242424"/>
</g>
<defs>
<clipPath id="clip0">
<rect width="214.3" height="86.1" fill="white"/>
</clipPath>
</defs>
</svg>
